<svg width="24" height="24" viewBox="0 0 24 24" fill="none" xmlns="http://www.w3.org/2000/svg">
<g id="Frame">
<g id="Group">
<path id="Vector" d="M5.41047 11.04C4.64374 10.9273 3.87172 10.854 3.09747 10.8205C2.75797 10.7995 2.31047 10.9765 2.23297 11.8325C2.21851 12.0477 2.23929 12.2639 2.29447 12.4725C2.3459 12.6902 2.46184 12.8875 2.62714 13.0383C2.79243 13.1891 2.9994 13.2866 3.22097 13.318L6.53047 13.784C6.547 13.7867 6.56372 13.788 6.58047 13.788C6.64512 13.788 6.70868 13.7714 6.76499 13.7396C6.8213 13.7079 6.86845 13.6621 6.90185 13.6067C6.93526 13.5514 6.9538 13.4884 6.95566 13.4237C6.95752 13.3591 6.94264 13.2951 6.91247 13.238C5.82397 11.1675 5.54497 11.0815 5.41047 11.04ZM3.32547 12.5755C3.25277 12.5643 3.18508 12.5317 3.13115 12.4817C3.07722 12.4316 3.03954 12.3666 3.02297 12.295C2.98809 12.1665 2.97358 12.0334 2.97997 11.9005C2.98116 11.7866 3.00691 11.6744 3.05547 11.5715H3.06597C3.92097 11.625 4.88247 11.7025 5.14297 11.7485C5.42449 12.1251 5.67625 12.5232 5.89597 12.939L3.32547 12.5755Z" fill="#12181D"/>
<path id="Vector_2" d="M20.7803 10.8204C20.006 10.8539 19.234 10.9272 18.4673 11.0399C18.3328 11.0814 18.0533 11.1674 16.9633 13.2399C16.9331 13.2971 16.9182 13.3611 16.9201 13.4257C16.9219 13.4903 16.9405 13.5533 16.9739 13.6087C17.0073 13.664 17.0544 13.7098 17.1107 13.7415C17.1671 13.7733 17.2306 13.7899 17.2953 13.7899C17.312 13.79 17.3287 13.7886 17.3453 13.7859L20.6548 13.3199C20.8763 13.2885 21.0833 13.1911 21.2486 13.0402C21.4139 12.8894 21.5298 12.6922 21.5813 12.4744C21.6363 12.2658 21.6571 12.0496 21.6428 11.8344C21.5668 10.9764 21.1168 10.7999 20.7803 10.8204ZM20.8548 12.2949C20.8382 12.3665 20.8005 12.4316 20.7466 12.4816C20.6927 12.5316 20.625 12.5643 20.5523 12.5754L17.9818 12.9374C18.2016 12.5218 18.4532 12.1238 18.7343 11.7469C18.9993 11.7004 19.9618 11.6229 20.8163 11.5699C20.8708 11.6714 20.8988 11.7851 20.8978 11.9004C20.9042 12.0333 20.8897 12.1664 20.8548 12.2949Z" fill="#12181D"/>
<path id="Vector_3" d="M17.131 11.389C17.0932 11.335 17.0419 11.2919 16.9822 11.264C16.9226 11.2361 16.8566 11.2244 16.791 11.23C16.7565 11.233 13.312 11.53 11.941 11.53C10.57 11.53 7.12497 11.23 7.09097 11.23C7.02531 11.2242 6.95928 11.2358 6.89956 11.2637C6.83985 11.2916 6.78855 11.3348 6.75086 11.3889C6.71317 11.443 6.69042 11.506 6.68491 11.5717C6.67939 11.6374 6.69132 11.7034 6.71947 11.763L7.70697 13.8585C7.73585 13.9194 7.78054 13.9714 7.83639 14.0091C7.89224 14.0469 7.95719 14.0689 8.02447 14.073L11.939 14.297L15.8595 14.073C15.9268 14.069 15.9918 14.047 16.0476 14.0093C16.1035 13.9715 16.1482 13.9194 16.177 13.8585L17.1645 11.763C17.1924 11.7032 17.204 11.6371 17.1981 11.5714C17.1922 11.5058 17.1691 11.4428 17.131 11.389ZM15.592 13.339L11.94 13.55L8.28997 13.339L7.67447 12.033C8.75397 12.121 10.894 12.283 11.9415 12.283C12.989 12.283 15.1295 12.121 16.2095 12.033L15.592 13.339Z" fill="#12181D"/>
<path id="Vector_4" d="M22.8439 18.6853C22.7444 18.6853 22.649 18.7248 22.5787 18.7951C22.5084 18.8655 22.4689 18.9609 22.4689 19.0603V20.6173C22.4689 20.6525 22.4549 20.6862 22.4301 20.711C22.4052 20.7358 22.3715 20.7498 22.3364 20.7498H20.3884C20.3532 20.7498 20.3195 20.7358 20.2947 20.711C20.2698 20.6862 20.2559 20.6525 20.2559 20.6173V19.9753C20.2559 19.8759 20.2164 19.7805 20.146 19.7101C20.0757 19.6398 19.9803 19.6003 19.8809 19.6003C19.7814 19.6003 19.686 19.6398 19.6157 19.7101C19.5454 19.7805 19.5059 19.8759 19.5059 19.9753V20.6173C19.5061 20.8513 19.5992 21.0756 19.7646 21.241C19.9301 21.4065 20.1544 21.4995 20.3884 21.4998H22.3384C22.5723 21.4995 22.7966 21.4065 22.9621 21.241C23.1275 21.0756 23.2206 20.8513 23.2209 20.6173V19.0603C23.2209 19.0109 23.2111 18.962 23.1921 18.9163C23.1732 18.8707 23.1454 18.8293 23.1103 18.7944C23.0753 18.7596 23.0337 18.732 22.988 18.7133C22.9423 18.6945 22.8933 18.685 22.8439 18.6853Z" fill="#12181D"/>
<path id="Vector_5" d="M3.96986 19.5998C3.8704 19.5998 3.77502 19.6393 3.70469 19.7096C3.63437 19.78 3.59486 19.8753 3.59486 19.9748V20.6168C3.59486 20.6519 3.58097 20.6855 3.55623 20.7103C3.53149 20.7352 3.49791 20.7492 3.46286 20.7493H1.51286C1.4778 20.7492 1.44423 20.7352 1.41949 20.7103C1.39475 20.6855 1.38086 20.6519 1.38086 20.6168V19.0603C1.38086 18.9608 1.34135 18.8655 1.27102 18.7951C1.2007 18.7248 1.10532 18.6853 1.00586 18.6853C0.906403 18.6853 0.81102 18.7248 0.740694 18.7951C0.670368 18.8655 0.630859 18.9608 0.630859 19.0603V20.6173C0.630991 20.8511 0.723805 21.0752 0.888953 21.2407C1.0541 21.4061 1.27811 21.4993 1.51186 21.4998H3.46186C3.69579 21.4995 3.92005 21.4065 4.08541 21.241C4.25078 21.0755 4.34373 20.8512 4.34386 20.6173V19.9753C4.34399 19.8759 4.30468 19.7806 4.23455 19.7102C4.16443 19.6398 4.06923 19.6001 3.96986 19.5998Z" fill="#12181D"/>
<path id="Vector_6" d="M23.1535 6.92739L21.9035 6.71139C21.7209 6.67769 21.5322 6.70722 21.3686 6.79511C21.205 6.883 21.0762 7.024 21.0035 7.19489L20.936 7.34489L20.05 5.25489C19.8497 4.77567 19.5301 4.35571 19.1215 4.03503C18.7129 3.71434 18.2291 3.5036 17.716 3.42289C15.8042 3.13265 13.8727 2.99123 11.939 2.99989C10.0053 2.99139 8.07381 3.13298 6.162 3.42339C5.64898 3.50405 5.16514 3.71472 4.75659 4.03531C4.34803 4.35591 4.02835 4.77576 3.828 5.25489L2.939 7.34689L2.876 7.19989C2.80384 7.02827 2.67539 6.88634 2.51181 6.79746C2.34822 6.70858 2.15925 6.67805 1.976 6.71089L0.726 6.92739C0.523146 6.96103 0.338822 7.06559 0.205865 7.22244C0.072908 7.3793 -4.59302e-05 7.57826 2.16947e-08 7.78389V8.02939C0.000187287 8.22732 0.0677112 8.41931 0.191473 8.57378C0.315234 8.72826 0.487869 8.83603 0.681 8.87939L1.868 9.14739L1.342 9.94989C0.886231 10.6433 0.643732 11.4551 0.6445 12.2849V16.5499C0.6445 18.1594 1.7655 19.1999 3.5015 19.1999H20.3765C22.1125 19.1999 23.2335 18.1599 23.2335 16.5499V12.2829C23.2343 11.4531 22.9918 10.6413 22.536 9.94789L22.01 9.14789L23.193 8.88089C23.3867 8.83805 23.56 8.73053 23.6844 8.57603C23.8089 8.42153 23.877 8.22926 23.8775 8.03089V7.78539C23.8781 7.57977 23.8056 7.38063 23.673 7.22348C23.5404 7.06634 23.3563 6.9614 23.1535 6.92739ZM0.8425 8.14539C0.816181 8.13947 0.792669 8.12475 0.77585 8.10365C0.759031 8.08256 0.749912 8.05636 0.75 8.02939V7.78389C0.749593 7.75556 0.759522 7.72806 0.777928 7.70652C0.796334 7.68499 0.821956 7.6709 0.85 7.66689L2.1055 7.44989C2.12311 7.44672 2.14127 7.45003 2.15663 7.45923C2.17198 7.46842 2.18348 7.48287 2.189 7.49989L2.4955 8.19289L2.3085 8.47789L0.8425 8.14539ZM22.4835 15.3849H2.345C2.24554 15.3849 2.15016 15.4244 2.07984 15.4947C2.00951 15.565 1.97 15.6604 1.97 15.7599C1.97 15.8593 2.00951 15.9547 2.07984 16.0251C2.15016 16.0954 2.24554 16.1349 2.345 16.1349H22.4835V16.5499C22.4835 17.7389 21.696 18.4499 20.3765 18.4499H3.5015C2.182 18.4499 1.3945 17.7394 1.3945 16.5499V12.2829C1.39398 11.5992 1.5937 10.9303 1.969 10.3589L3.151 8.55589H19.5115C19.611 8.55589 19.7063 8.51638 19.7767 8.44605C19.847 8.37573 19.8865 8.28034 19.8865 8.18089C19.8865 8.08143 19.847 7.98605 19.7767 7.91572C19.7063 7.8454 19.611 7.80589 19.5115 7.80589H3.5605L4.5185 5.54989C4.66928 5.18793 4.91032 4.87065 5.21861 4.62836C5.5269 4.38607 5.89216 4.22684 6.2795 4.16589C8.15235 3.88061 10.0446 3.74152 11.939 3.74989C13.8334 3.74102 15.7256 3.87961 17.5985 4.16439C17.986 4.22549 18.3514 4.38494 18.6597 4.6275C18.968 4.87007 19.2089 5.18764 19.3595 5.54989L20.4555 8.13339C20.464 8.15406 20.4746 8.17382 20.487 8.19239L21.909 10.3609C22.2843 10.9323 22.484 11.6012 22.4835 12.2849V15.3849ZM23.1275 8.02939C23.1275 8.0569 23.118 8.08357 23.1006 8.10489C23.0832 8.1262 23.059 8.14086 23.032 8.14639L21.571 8.47639L21.384 8.19139L21.6925 7.49139C21.6994 7.47623 21.7112 7.46379 21.7259 7.45601C21.7407 7.44823 21.7576 7.44555 21.774 7.44839L23.027 7.66539C23.055 7.6694 23.0807 7.68349 23.0991 7.70502C23.1175 7.72656 23.1274 7.75406 23.127 7.78239L23.1275 8.02939Z" fill="#12181D"/>
</g>
</g>
</svg>
